<?xml version="1.0" encoding="us-ascii" standalone="no"?><svg xmlns="http://www.w3.org/2000/svg" xmlns:xlink="http://www.w3.org/1999/xlink" contentStyleType="text/css" height="767px" preserveAspectRatio="none" style="width:886px;height:767px;background:#FFFFFF;" version="1.1" viewBox="0 0 886 767" width="886px" zoomAndPan="magnify"><defs/><g><rect fill="none" height="94.8906" style="stroke:#000000;stroke-width:1.5;" width="643" x="216" y="174.3125"/><rect fill="none" height="92.0547" style="stroke:#000000;stroke-width:1.5;" width="353.5" x="406" y="418.6094"/><rect fill="none" height="143.7578" style="stroke:#000000;stroke-width:1.5;" width="859" x="10" y="524.6641"/><rect fill="none" height="48.7031" style="stroke:#000000;stroke-width:1.5;" width="219.5" x="639.5" y="612.7188"/><line style="stroke:#181818;stroke-width:0.5;stroke-dasharray:5.0,5.0;" x1="51" x2="51" y1="82.6094" y2="685.4219"/><line style="stroke:#181818;stroke-width:0.5;stroke-dasharray:5.0,5.0;" x1="247" x2="247" y1="82.6094" y2="685.4219"/><line style="stroke:#181818;stroke-width:0.5;stroke-dasharray:5.0,5.0;" x1="443" x2="443" y1="82.6094" y2="685.4219"/><line style="stroke:#181818;stroke-width:0.5;stroke-dasharray:5.0,5.0;" x1="699.5" x2="699.5" y1="82.6094" y2="685.4219"/><line style="stroke:#181818;stroke-width:0.5;stroke-dasharray:5.0,5.0;" x1="832" x2="832" y1="82.6094" y2="685.4219"/><text fill="#000000" font-family="sans-serif" font-size="14" lengthAdjust="spacing" textLength="57" x="20" y="79.5332">Operator</text><ellipse cx="51.5" cy="13.5" fill="#E2E2F0" rx="8" ry="8" style="stroke:#181818;stroke-width:0.5;"/><path d="M51.5,21.5 L51.5,48.5 M38.5,29.5 L64.5,29.5 M51.5,48.5 L38.5,63.5 M51.5,48.5 L64.5,63.5 " fill="none" style="stroke:#181818;stroke-width:0.5;"/><text fill="#000000" font-family="sans-serif" font-size="14" lengthAdjust="spacing" textLength="57" x="20" y="698.9551">Operator</text><ellipse cx="51.5" cy="710.5313" fill="#E2E2F0" rx="8" ry="8" style="stroke:#181818;stroke-width:0.5;"/><path d="M51.5,718.5313 L51.5,745.5313 M38.5,726.5313 L64.5,726.5313 M51.5,745.5313 L38.5,760.5313 M51.5,745.5313 L64.5,760.5313 " fill="none" style="stroke:#181818;stroke-width:0.5;"/><rect fill="#E2E2F0" height="31.6094" rx="2.5" ry="2.5" style="stroke:#181818;stroke-width:0.5;" width="43" x="226" y="50"/><text fill="#000000" font-family="sans-serif" font-size="14" lengthAdjust="spacing" textLength="29" x="233" y="71.5332">MES</text><rect fill="#E2E2F0" height="31.6094" rx="2.5" ry="2.5" style="stroke:#181818;stroke-width:0.5;" width="43" x="226" y="684.4219"/><text fill="#000000" font-family="sans-serif" font-size="14" lengthAdjust="spacing" textLength="29" x="233" y="705.9551">MES</text><rect fill="#E2E2F0" height="31.6094" rx="2.5" ry="2.5" style="stroke:#181818;stroke-width:0.5;" width="55" x="416" y="50"/><text fill="#000000" font-family="sans-serif" font-size="14" lengthAdjust="spacing" textLength="41" x="423" y="71.5332">Cache</text><rect fill="#E2E2F0" height="31.6094" rx="2.5" ry="2.5" style="stroke:#181818;stroke-width:0.5;" width="55" x="416" y="684.4219"/><text fill="#000000" font-family="sans-serif" font-size="14" lengthAdjust="spacing" textLength="41" x="423" y="705.9551">Cache</text><rect fill="#E2E2F0" height="49.2188" rx="2.5" ry="2.5" style="stroke:#181818;stroke-width:0.5;" width="100" x="649.5" y="32.3906"/><text fill="#000000" font-family="sans-serif" font-size="14" lengthAdjust="spacing" textLength="86" x="656.5" y="53.9238">Transactional</text><text fill="#000000" font-family="sans-serif" font-size="14" lengthAdjust="spacing" textLength="45" x="677" y="71.5332">Outbox</text><rect fill="#E2E2F0" height="49.2188" rx="2.5" ry="2.5" style="stroke:#181818;stroke-width:0.5;" width="100" x="649.5" y="684.4219"/><text fill="#000000" font-family="sans-serif" font-size="14" lengthAdjust="spacing" textLength="86" x="656.5" y="705.9551">Transactional</text><text fill="#000000" font-family="sans-serif" font-size="14" lengthAdjust="spacing" textLength="45" x="677" y="723.5645">Outbox</text><rect fill="#E2E2F0" height="31.6094" rx="2.5" ry="2.5" style="stroke:#181818;stroke-width:0.5;" width="33" x="816" y="50"/><text fill="#000000" font-family="sans-serif" font-size="14" lengthAdjust="spacing" textLength="19" x="823" y="71.5332">DB</text><rect fill="#E2E2F0" height="31.6094" rx="2.5" ry="2.5" style="stroke:#181818;stroke-width:0.5;" width="33" x="816" y="684.4219"/><text fill="#000000" font-family="sans-serif" font-size="14" lengthAdjust="spacing" textLength="19" x="823" y="705.9551">DB</text><rect fill="#EEEEEE" height="3" style="stroke:#EEEEEE;stroke-width:1.0;" width="879" x="0" y="113.7852"/><line style="stroke:#000000;stroke-width:1.0;" x1="0" x2="879" y1="113.7852" y2="113.7852"/><line style="stroke:#000000;stroke-width:1.0;" x1="0" x2="879" y1="116.7852" y2="116.7852"/><rect fill="#EEEEEE" height="24.3516" style="stroke:#000000;stroke-width:2.0;" width="65" x="407" y="102.6094"/><text fill="#000000" font-family="sans-serif" font-size="13" font-weight="bold" lengthAdjust="spacing" textLength="47" x="413" y="120.1045">&#1063;&#1090;&#1077;&#1085;&#1080;&#1077;</text><polygon fill="#181818" points="235.5,155.3125,245.5,159.3125,235.5,163.3125,239.5,159.3125" style="stroke:#181818;stroke-width:1.0;"/><line style="stroke:#181818;stroke-width:1.0;" x1="51.5" x2="241.5" y1="159.3125" y2="159.3125"/><text fill="#000000" font-family="sans-serif" font-size="13" lengthAdjust="spacing" textLength="138" x="58.5" y="154.4561">&#1047;&#1072;&#1087;&#1088;&#1086;&#1089; &#1089;&#1087;&#1080;&#1089;&#1082;&#1072; &#1079;&#1072;&#1082;&#1072;&#1079;&#1086;&#1074;</text><path d="M216,174.3125 L277,174.3125 L277,182.6641 L267,192.6641 L216,192.6641 L216,174.3125 " fill="#EEEEEE" style="stroke:#000000;stroke-width:1.5;"/><rect fill="none" height="94.8906" style="stroke:#000000;stroke-width:1.5;" width="643" x="216" y="174.3125"/><text fill="#000000" font-family="sans-serif" font-size="13" font-weight="bold" lengthAdjust="spacing" textLength="16" x="231" y="188.8076">alt</text><text fill="#000000" font-family="sans-serif" font-size="11" font-weight="bold" lengthAdjust="spacing" textLength="57" x="292" y="187.7314">[cache hit]</text><polygon fill="#181818" points="431.5,211.0156,441.5,215.0156,431.5,219.0156,435.5,215.0156" style="stroke:#181818;stroke-width:1.0;"/><line style="stroke:#181818;stroke-width:1.0;" x1="247.5" x2="437.5" y1="215.0156" y2="215.0156"/><text fill="#000000" font-family="sans-serif" font-size="13" lengthAdjust="spacing" textLength="137" x="254.5" y="210.1592">&#1063;&#1090;&#1077;&#1085;&#1080;&#1077; &#1089;&#1087;&#1080;&#1089;&#1082;&#1072; &#1079;&#1072;&#1082;&#1072;&#1079;&#1086;&#1074;</text><line style="stroke:#000000;stroke-width:1.0;stroke-dasharray:2.0,2.0;" x1="216" x2="859" y1="224.0156" y2="224.0156"/><text fill="#000000" font-family="sans-serif" font-size="11" font-weight="bold" lengthAdjust="spacing" textLength="71" x="221" y="235.4346">[cache miss]</text><polygon fill="#181818" points="820.5,257.2031,830.5,261.2031,820.5,265.2031,824.5,261.2031" style="stroke:#181818;stroke-width:1.0;"/><line style="stroke:#181818;stroke-width:1.0;" x1="247.5" x2="826.5" y1="261.2031" y2="261.2031"/><text fill="#000000" font-family="sans-serif" font-size="13" lengthAdjust="spacing" textLength="137" x="254.5" y="256.3467">&#1063;&#1090;&#1077;&#1085;&#1080;&#1077; &#1089;&#1087;&#1080;&#1089;&#1082;&#1072; &#1079;&#1072;&#1082;&#1072;&#1079;&#1086;&#1074;</text><polygon fill="#181818" points="62.5,294.5547,52.5,298.5547,62.5,302.5547,58.5,298.5547" style="stroke:#181818;stroke-width:1.0;"/><line style="stroke:#181818;stroke-width:1.0;" x1="56.5" x2="246.5" y1="298.5547" y2="298.5547"/><text fill="#000000" font-family="sans-serif" font-size="13" lengthAdjust="spacing" textLength="143" x="68.5" y="293.6982">&#1042;&#1086;&#1079;&#1074;&#1088;&#1072;&#1090; &#1089;&#1087;&#1080;&#1089;&#1082;&#1072; &#1079;&#1072;&#1082;&#1072;&#1079;&#1086;&#1074;</text><rect fill="#EEEEEE" height="3" style="stroke:#EEEEEE;stroke-width:1.0;" width="879" x="0" y="327.7305"/><line style="stroke:#000000;stroke-width:1.0;" x1="0" x2="879" y1="327.7305" y2="327.7305"/><line style="stroke:#000000;stroke-width:1.0;" x1="0" x2="879" y1="330.7305" y2="330.7305"/><rect fill="#EEEEEE" height="24.3516" style="stroke:#000000;stroke-width:2.0;" width="65" x="407" y="316.5547"/><text fill="#000000" font-family="sans-serif" font-size="13" font-weight="bold" lengthAdjust="spacing" textLength="47" x="413" y="334.0498">&#1047;&#1072;&#1087;&#1080;&#1089;&#1100;</text><polygon fill="#181818" points="235.5,369.2578,245.5,373.2578,235.5,377.2578,239.5,373.2578" style="stroke:#181818;stroke-width:1.0;"/><line style="stroke:#181818;stroke-width:1.0;" x1="51.5" x2="241.5" y1="373.2578" y2="373.2578"/><text fill="#000000" font-family="sans-serif" font-size="13" lengthAdjust="spacing" textLength="172" x="58.5" y="368.4014">&#1047;&#1072;&#1087;&#1088;&#1086;&#1089; &#1085;&#1072; &#1080;&#1079;&#1084;&#1077;&#1085;&#1077;&#1085;&#1080;&#1077; &#1079;&#1072;&#1082;&#1072;&#1079;&#1072;</text><polygon fill="#181818" points="431.5,399.6094,441.5,403.6094,431.5,407.6094,435.5,403.6094" style="stroke:#181818;stroke-width:1.0;"/><line style="stroke:#181818;stroke-width:1.0;" x1="247.5" x2="437.5" y1="403.6094" y2="403.6094"/><text fill="#000000" font-family="sans-serif" font-size="13" lengthAdjust="spacing" textLength="172" x="254.5" y="398.7529">&#1047;&#1072;&#1087;&#1088;&#1086;&#1089; &#1085;&#1072; &#1080;&#1079;&#1084;&#1077;&#1085;&#1077;&#1085;&#1080;&#1077; &#1079;&#1072;&#1082;&#1072;&#1079;&#1072;</text><path d="M406,418.6094 L494,418.6094 L494,426.9609 L484,436.9609 L406,436.9609 L406,418.6094 " fill="#EEEEEE" style="stroke:#000000;stroke-width:1.5;"/><rect fill="none" height="92.0547" style="stroke:#000000;stroke-width:1.5;" width="353.5" x="406" y="418.6094"/><text fill="#000000" font-family="sans-serif" font-size="13" font-weight="bold" lengthAdjust="spacing" textLength="43" x="421" y="433.1045">atomic</text><line style="stroke:#181818;stroke-width:1.0;" x1="443.5" x2="485.5" y1="459.3125" y2="459.3125"/><line style="stroke:#181818;stroke-width:1.0;" x1="485.5" x2="485.5" y1="459.3125" y2="472.3125"/><line style="stroke:#181818;stroke-width:1.0;" x1="444.5" x2="485.5" y1="472.3125" y2="472.3125"/><polygon fill="#181818" points="454.5,468.3125,444.5,472.3125,454.5,476.3125,450.5,472.3125" style="stroke:#181818;stroke-width:1.0;"/><text fill="#000000" font-family="sans-serif" font-size="13" lengthAdjust="spacing" textLength="109" x="450.5" y="454.4561">&#1048;&#1079;&#1084;&#1077;&#1085;&#1077;&#1085;&#1080;&#1077; &#1079;&#1072;&#1082;&#1072;&#1079;&#1072;</text><polygon fill="#181818" points="687.5,498.6641,697.5,502.6641,687.5,506.6641,691.5,502.6641" style="stroke:#181818;stroke-width:1.0;"/><line style="stroke:#181818;stroke-width:1.0;" x1="443.5" x2="693.5" y1="502.6641" y2="502.6641"/><text fill="#000000" font-family="sans-serif" font-size="13" lengthAdjust="spacing" textLength="232" x="450.5" y="497.8076">&#1044;&#1086;&#1073;&#1072;&#1074;&#1083;&#1077;&#1085;&#1080;&#1077; &#1079;&#1072;&#1087;&#1088;&#1086;&#1089;&#1072; &#1085;&#1072; &#1080;&#1079;&#1084;&#1077;&#1085;&#1077;&#1085;&#1077;&#1080; DB</text><path d="M10,524.6641 L76,524.6641 L76,533.0156 L66,543.0156 L10,543.0156 L10,524.6641 " fill="#EEEEEE" style="stroke:#000000;stroke-width:1.5;"/><rect fill="none" height="143.7578" style="stroke:#000000;stroke-width:1.5;" width="859" x="10" y="524.6641"/><text fill="#000000" font-family="sans-serif" font-size="13" font-weight="bold" lengthAdjust="spacing" textLength="21" x="25" y="539.1592">par</text><polygon fill="#181818" points="258.5,561.3672,248.5,565.3672,258.5,569.3672,254.5,565.3672" style="stroke:#181818;stroke-width:1.0;"/><line style="stroke:#181818;stroke-width:1.0;" x1="252.5" x2="442.5" y1="565.3672" y2="565.3672"/><text fill="#000000" font-family="sans-serif" font-size="13" lengthAdjust="spacing" textLength="157" x="264.5" y="560.5107">&#1042;&#1086;&#1079;&#1074;&#1088;&#1072;&#1090; &#1089;&#1090;&#1072;&#1090;&#1091;&#1089;&#1072; &#1086;&#1087;&#1077;&#1088;&#1072;&#1094;&#1080;&#1080;</text><polygon fill="#181818" points="62.5,591.7188,52.5,595.7188,62.5,599.7188,58.5,595.7188" style="stroke:#181818;stroke-width:1.0;"/><line style="stroke:#181818;stroke-width:1.0;" x1="56.5" x2="246.5" y1="595.7188" y2="595.7188"/><text fill="#000000" font-family="sans-serif" font-size="13" lengthAdjust="spacing" textLength="157" x="68.5" y="590.8623">&#1042;&#1086;&#1079;&#1074;&#1088;&#1072;&#1090; &#1089;&#1090;&#1072;&#1090;&#1091;&#1089;&#1072; &#1086;&#1087;&#1077;&#1088;&#1072;&#1094;&#1080;&#1080;</text><line style="stroke:#000000;stroke-width:1.0;stroke-dasharray:2.0,2.0;" x1="10" x2="869" y1="604.7188" y2="604.7188"/><path d="M639.5,612.7188 L712.5,612.7188 L712.5,621.0703 L702.5,631.0703 L639.5,631.0703 L639.5,612.7188 " fill="#EEEEEE" style="stroke:#000000;stroke-width:1.5;"/><rect fill="none" height="48.7031" style="stroke:#000000;stroke-width:1.5;" width="219.5" x="639.5" y="612.7188"/><text fill="#000000" font-family="sans-serif" font-size="13" font-weight="bold" lengthAdjust="spacing" textLength="28" x="654.5" y="627.2139">loop</text><text fill="#000000" font-family="sans-serif" font-size="11" font-weight="bold" lengthAdjust="spacing" textLength="96" x="727.5" y="626.1377">[until successful]</text><polygon fill="#181818" points="820.5,649.4219,830.5,653.4219,820.5,657.4219,824.5,653.4219" style="stroke:#181818;stroke-width:1.0;"/><line style="stroke:#181818;stroke-width:1.0;" x1="699.5" x2="826.5" y1="653.4219" y2="653.4219"/><text fill="#000000" font-family="sans-serif" font-size="13" lengthAdjust="spacing" textLength="109" x="706.5" y="648.5654">&#1048;&#1079;&#1084;&#1077;&#1085;&#1077;&#1085;&#1080;&#1077; &#1079;&#1072;&#1082;&#1072;&#1079;&#1072;</text><!--SRC=[bLBDIiD04BxlKmoz-mA5UB3rM7AmHo_RDTg5DBjaD-3HLl3aIGHz0w-n41hyQLzXzesStRQOI0asa6IOcU_RRxuTBgpA8TP9pdt03SLCyznA8JNFB8pEBtnsb9XMUi35DF65WPYs2hrnpZF3XPKgu-bb5XTsecvxldMieDKwFFFPuOInA09ySmkiy1jhh22AMApXvDGVsmTymH8txWxNRWvkZXkiwVk19U2AAXJGVurBndXgGGHbKsaPq4C4deTKzjj7TF4agKbsF3DfJ9DeE3c69xjYR0UCDG6VABt29OrIkaKdr3iInlODxh7B4H92y9g0Nq7LNbc3iMGj7uv6t-Igq40RCfCYk44yltIltU16_rXH-pCD-4wr9Nws0Jj9Niy1KHNMj371KrgY9klMah_UqXrHuEwtX6joiWgr1-AjcrTwy6QwqNv10aMgb8OYip85KmYH67DTfA7Y7rhu_ShymoC_6Rq_]--></g></svg>